HIERARCHY
ROOT Hips
{
    OFFSET   0.000000   0.000000   0.000000
    CHANNELS 6 Xposition Yposition Zposition Zrotation Xrotation Yrotation
    JOINT Chest
    {
        OFFSET   0.000000   8.007230   0.000000
        CHANNELS 3 Zrotation Xrotation Yrotation
        JOINT Chest2
        {
            OFFSET   0.000000  22.077100   0.000000
            CHANNELS 3 Zrotation Xrotation Yrotation
            JOINT Neck
            {
                OFFSET   0.000000  23.255100   0.000000
                CHANNELS 3 Zrotation Xrotation Yrotation
                JOINT Head
                {
                    OFFSET   0.000000  14.370100   1.956600
                    CHANNELS 3 Zrotation Xrotation Yrotation
                    End Site
                    {
                        OFFSET   0.000000  19.566000   0.000000
                    }
                }
            }
            JOINT LeftCollar
            {
                OFFSET   3.911900  19.017000  -0.467063
                CHANNELS 3 Zrotation Xrotation Yrotation
                JOINT LeftShoulder
                {
                    OFFSET  10.383700   0.000000   0.000000
                    CHANNELS 3 Zrotation Xrotation Yrotation
                    JOINT LeftElbow
                    {
                        OFFSET  26.662100   0.001193   0.000980
                        CHANNELS 3 Zrotation Xrotation Yrotation
                        JOINT LeftWrist
                        {
                            OFFSET  28.869000  -0.000059  -0.000082
                            CHANNELS 3 Zrotation Xrotation Yrotation
                            JOINT LeftFinger0
                            {
                                OFFSET   2.044650  -2.323450   3.252850
                                CHANNELS 3 Zrotation Xrotation Yrotation
                                JOINT LeftFinger01
                                {
                                    OFFSET   3.088130   0.000000   0.000000
                                    CHANNELS 3 Zrotation Xrotation Yrotation
                                    JOINT LeftFinger02
                                    {
                                        OFFSET   2.639460   0.000000   0.000000
                                        CHANNELS 3 Zrotation Xrotation Yrotation
                                        End Site
                                        {
                                            OFFSET   2.582190   0.000000   0.000000
                                        }
                                    }
                                }
                            }
                            JOINT LeftFinger1
                            {
                                OFFSET   8.364480   0.000000   3.252850
                                CHANNELS 3 Zrotation Xrotation Yrotation
                                JOINT LeftFinger11
                                {
                                    OFFSET   4.646930   0.000000   0.000000
                                    CHANNELS 3 Zrotation Xrotation Yrotation
                                    JOINT LeftFinger12
                                    {
                                        OFFSET   2.323470   0.000000   0.000000
                                        CHANNELS 3 Zrotation Xrotation Yrotation
                                        End Site
                                        {
                                            OFFSET   2.273050   0.000000   0.000000
                                        }
                                    }
                                }
                            }
                            JOINT LeftFinger2
                            {
                                OFFSET   8.364490   0.000016   1.078090
                                CHANNELS 3 Zrotation Xrotation Yrotation
                                JOINT LeftFinger21
                                {
                                    OFFSET   5.111610   0.000000   0.000000
                                    CHANNELS 3 Zrotation Xrotation Yrotation
                                    JOINT LeftFinger22
                                    {
                                        OFFSET   2.788150   0.000016   0.000000
                                        CHANNELS 3 Zrotation Xrotation Yrotation
                                        End Site
                                        {
                                            OFFSET   2.727660   0.000000   0.000000
                                        }
                                    }
                                }
                            }
                            JOINT LeftFinger3
                            {
                                OFFSET   7.899780   0.000015  -1.078090
                                CHANNELS 3 Zrotation Xrotation Yrotation
                                JOINT LeftFinger31
                                {
                                    OFFSET   4.646930   0.000000   0.000000
                                    CHANNELS 3 Zrotation Xrotation Yrotation
                                    JOINT LeftFinger32
                                    {
                                        OFFSET   2.323470   0.000000   0.000000
                                        CHANNELS 3 Zrotation Xrotation Yrotation
                                        End Site
                                        {
                                            OFFSET   2.273050   0.000000   0.000000
                                        }
                                    }
                                }
                            }
                            JOINT LeftFinger4
                            {
                                OFFSET   7.435090   0.000000  -3.252850
                                CHANNELS 3 Zrotation Xrotation Yrotation
                                JOINT LeftFinger41
                                {
                                    OFFSET   3.717550   0.000000   0.000000
                                    CHANNELS 3 Zrotation Xrotation Yrotation
                                    JOINT LeftFinger42
                                    {
                                        OFFSET   1.858770   0.000000   0.000000
                                        CHANNELS 3 Zrotation Xrotation Yrotation
                                        End Site
                                        {
                                            OFFSET   1.818440   0.000000   0.000000
                                        }
                                    }
                                }
                            }
                        }
                    }
                }
            }
            JOINT RightCollar
            {
                OFFSET  -3.911910  19.017000  -0.467062
                CHANNELS 3 Zrotation Xrotation Yrotation
                JOINT RightShoulder
                {
                    OFFSET -10.383700   0.000014   0.000000
                    CHANNELS 3 Zrotation Xrotation Yrotation
                    JOINT RightElbow
                    {
                        OFFSET -26.662100   0.001225   0.001091
                        CHANNELS 3 Zrotation Xrotation Yrotation
                        JOINT RightWrist
                        {
                            OFFSET -28.869000  -0.000020  -0.000085
                            CHANNELS 3 Zrotation Xrotation Yrotation
                            JOINT RightFinger0
                            {
                                OFFSET  -2.044650  -2.323490   3.252850
                                CHANNELS 3 Zrotation Xrotation Yrotation
                                JOINT RightFinger01
                                {
                                    OFFSET  -3.088130   0.000000   0.000000
                                    CHANNELS 3 Zrotation Xrotation Yrotation
                                    JOINT RightFinger02
                                    {
                                        OFFSET  -2.639460   0.000000   0.000000
                                        CHANNELS 3 Zrotation Xrotation Yrotation
                                        End Site
                                        {
                                            OFFSET  -2.582190   0.000000   0.000000
                                        }
                                    }
                                }
                            }
                            JOINT RightFinger1
                            {
                                OFFSET  -8.364480   0.000000   3.252850
                                CHANNELS 3 Zrotation Xrotation Yrotation
                                JOINT RightFinger11
                                {
                                    OFFSET  -4.646930   0.000000   0.000000
                                    CHANNELS 3 Zrotation Xrotation Yrotation
                                    JOINT RightFinger12
                                    {
                                        OFFSET  -2.323470   0.000000   0.000000
                                        CHANNELS 3 Zrotation Xrotation Yrotation
                                        End Site
                                        {
                                            OFFSET  -2.273050   0.000000   0.000000
                                        }
                                    }
                                }
                            }
                            JOINT RightFinger2
                            {
                                OFFSET  -8.364480   0.000000   1.078090
                                CHANNELS 3 Zrotation Xrotation Yrotation
                                JOINT RightFinger21
                                {
                                    OFFSET  -5.111620   0.000000   0.000000
                                    CHANNELS 3 Zrotation Xrotation Yrotation
                                    JOINT RightFinger22
                                    {
                                        OFFSET  -2.788160   0.000000   0.000000
                                        CHANNELS 3 Zrotation Xrotation Yrotation
                                        End Site
                                        {
                                            OFFSET  -2.727660   0.000000   0.000000
                                        }
                                    }
                                }
                            }
                            JOINT RightFinger3
                            {
                                OFFSET  -7.899780   0.000000  -1.078090
                                CHANNELS 3 Zrotation Xrotation Yrotation
                                JOINT RightFinger31
                                {
                                    OFFSET  -4.646930   0.000000   0.000000
                                    CHANNELS 3 Zrotation Xrotation Yrotation
                                    JOINT RightFinger32
                                    {
                                        OFFSET  -2.323470   0.000000   0.000000
                                        CHANNELS 3 Zrotation Xrotation Yrotation
                                        End Site
                                        {
                                            OFFSET  -2.273050   0.000000   0.000000
                                        }
                                    }
                                }
                            }
                            JOINT RightFinger4
                            {
                                OFFSET  -7.435090   0.000000  -3.252850
                                CHANNELS 3 Zrotation Xrotation Yrotation
                                JOINT RightFinger41
                                {
                                    OFFSET  -3.717550   0.000000   0.000000
                                    CHANNELS 3 Zrotation Xrotation Yrotation
                                    JOINT RightFinger42
                                    {
                                        OFFSET  -1.858760   0.000000   0.000000
                                        CHANNELS 3 Zrotation Xrotation Yrotation
                                        End Site
                                        {
                                            OFFSET  -1.818440   0.000000   0.000000
                                        }
                                    }
                                }
                            }
                        }
                    }
                }
            }
        }
    }
    JOINT LeftHip
    {
        OFFSET   9.783030   0.000000   0.000000
        CHANNELS 3 Zrotation Xrotation Yrotation
        JOINT LeftKnee
        {
            OFFSET   0.000063 -41.789100   0.000608
            CHANNELS 3 Zrotation Xrotation Yrotation
            JOINT LeftAnkle
            {
                OFFSET   0.000048 -41.133200  -0.000184
                CHANNELS 3 Zrotation Xrotation Yrotation
                JOINT LeftToe
                {
                    OFFSET   0.000000  -6.358960  14.674500
                    CHANNELS 3 Zrotation Xrotation Yrotation
                    End Site
                    {
                        OFFSET   0.000000   0.000000   3.913200
                    }
                }
            }
        }
    }
    JOINT RightHip
    {
        OFFSET  -9.783030   0.000000   0.000000
        CHANNELS 3 Zrotation Xrotation Yrotation
        JOINT RightKnee
        {
            OFFSET   0.000071 -41.789100   0.001239
            CHANNELS 3 Zrotation Xrotation Yrotation
            JOINT RightAnkle
            {
                OFFSET   0.000037 -41.133200  -0.000166
                CHANNELS 3 Zrotation Xrotation Yrotation
                JOINT RightToe
                {
                    OFFSET   0.000000  -6.358960  14.674500
                    CHANNELS 3 Zrotation Xrotation Yrotation
                    End Site
                    {
                        OFFSET   0.000000   0.000000   3.913200
                    }
                }
            }
        }
    }
}
MOTION
Frames: 6
Frame Time:   0.016667
 -0.047591  89.463700  -1.799580  -4.597110 -10.998600  -8.315570   2.065880   6.871050  -0.835665   4.280020  13.706200  -1.943500   4.548320   1.048990  -0.084590   7.478600   2.087200  -5.148800  -0.271908   0.185940  -1.606460 -74.973500  20.247200  -3.399760  -3.914910  -6.163430 -18.534400  13.306600  -9.656300   5.488600  38.021500  33.934400 -72.846600 -29.656200   0.019156   0.010916  -9.828090   0.004575  -0.032451 -34.290700  11.066200 -15.720600 -29.309900   0.005228   0.000707 -20.516900   0.004656  -0.011910 -28.610300   2.671690  -4.884010 -39.598800   0.002562   0.002116 -26.372700   0.004303   0.003277 -28.550900   2.666840  -4.886650 -38.396600   0.003950   0.003904 -25.572000   0.003441   0.004774 -32.081900   0.864839  -1.379160 -48.138600  -0.006741   0.002736 -32.060300   0.003091   0.006675   7.090910  -0.907878   4.318210  50.354300   8.771430  23.037300 -38.587900 -15.457700  66.220200  20.668500  34.357600 -12.221600 -59.040400  54.333300 108.293000 -15.695000  -0.002452  -0.011544 -12.847500   0.008671  -0.003672  25.242400   9.699080  19.663300  22.031400  -0.004918  -0.006127  15.422000  -0.004128  -0.002268  24.403000   5.592920  12.123600  24.997500  -0.002491  -0.008340  16.648400  -0.010506  -0.003088  22.123500   1.958190   4.808420  22.205700   0.000837  -0.005309  14.788900  -0.002577   0.002011  42.025500  -1.689090  -1.873370  63.079800   0.005107   0.003610  42.011100   0.002410  -0.004101   3.209640  15.997100   3.219880   1.516590   0.161560  11.434000  -2.953910  -5.080340   2.341400  -0.000000   0.000000   0.000000   3.394800  13.215700  -7.149740   0.443725   0.419153  -5.798310  -1.361450  -2.914940   2.425430  -0.000000   0.000000  -0.000000
 -0.041838  89.458100  -1.799610  -4.578270 -11.005100  -8.242460   2.065410   6.858840  -0.875692   4.283390  13.680300  -2.023770   4.481590   1.029290  -0.082581   7.369330   2.049150  -4.917700  -0.305475   0.186063  -1.610680 -74.993900  20.362700  -3.452170  -3.917790  -6.432680 -18.297300  13.164500  -9.703240   5.560540  38.153600  34.247900 -73.269100 -29.653900   0.016472   0.009424  -9.826940   0.004711  -0.027213 -34.295000  11.066600 -15.718700 -29.313400   0.005230   0.000753 -20.519300   0.004659  -0.025476 -28.605700   2.680430  -4.900790 -39.500500   0.002587   0.002133 -26.307300   0.004253   0.003281 -28.536900   2.674510  -4.903980 -38.177400   0.003953   0.003991 -25.426100   0.003440   0.004775 -32.043900   0.872067  -1.392770 -48.082200  -0.008211   0.003008 -32.022700   0.003090   0.006675   7.100260  -0.907820   4.332640  50.404700   8.769590  23.209100 -38.844700 -15.337600  66.007900  20.779400  34.285500 -12.312300 -59.040400  54.333300 108.293000 -15.695000  -0.002422  -0.011685 -12.847500   0.008777  -0.003685  25.361300   9.723670  19.611100  22.128500  -0.004931  -0.006096  15.489900  -0.004123  -0.002261  24.475200   5.600060  12.099100  25.069300  -0.002496  -0.008389  16.696100  -0.010530  -0.003100  22.180200   1.917190   4.690880  22.258800   0.000817  -0.005282  14.824300  -0.002613   0.002049  42.133700  -1.723090  -1.903960  63.243600   0.005123   0.003594  42.120200   0.002446  -0.004099   3.217410  16.015100   3.228810   1.510040   0.115594  11.406000  -2.957530  -5.051050   2.287890  -0.000000   0.000000  -0.000000   3.399790  13.215700  -7.139340   0.437859   0.426849  -5.825940  -1.370280  -2.927610   2.370640   0.000000   0.000000   0.000000
 -0.035884  89.454700  -1.798810  -4.572420 -11.006600  -8.186260   2.066720   6.841940  -0.897157   4.287920  13.645700  -2.066220   4.432670   1.031780  -0.081860   7.289560   2.054820  -4.743970  -0.339713   0.171548  -1.631650 -74.991700  20.511400  -3.526240  -3.955670  -6.634110 -18.071700  12.942800  -9.364380   5.525560  38.319300  34.490000 -73.625200 -29.557100   0.009976   0.005691  -9.778550   0.004811  -0.019344 -34.227000  11.059900 -15.747900 -29.259400   0.005228   0.000792 -20.481500   0.004660  -0.019021 -28.590800   2.730180  -4.994470 -39.266100   0.002610   0.002155 -26.151200   0.004200   0.003280 -28.510600   2.722890  -4.998400 -37.836200   0.003953   0.004108 -25.198900   0.003440   0.004777 -31.908100   0.898421  -1.442580 -47.879500  -0.007856   0.003189 -31.887700   0.003089   0.006675   7.114310  -0.932733   4.337430  50.396700   8.732120  23.360400 -38.991000 -15.082000  65.655100  20.868300  34.178300 -12.397700 -59.040400  54.333300 108.293000 -15.695000  -0.002384  -0.011831 -12.847500   0.008886  -0.003700  25.452200   9.742480  19.571100  22.202700  -0.004937  -0.006056  15.541800  -0.004137  -0.002259  24.549100   5.607310  12.074100  25.142800  -0.002496  -0.008432  16.745000  -0.010538  -0.003104  22.240600   1.904640   4.642580  22.317900   0.000795  -0.005267  14.863700  -0.002646   0.002090  42.188600  -1.740470  -1.919440  63.326700   0.005154   0.003583  42.175600   0.002475  -0.004098   3.233340  16.013700   3.226520   1.509160   0.115766  11.386500  -2.965330  -5.046680   2.250690  -0.000000   0.000000   0.000000   3.401260  13.216100  -7.146510   0.444699   0.439815  -5.851440  -1.376030  -2.938720   2.355810  -0.000000   0.000000   0.000000
 -0.032716  89.453100  -1.795190  -4.570080 -11.007400  -8.137510   2.066390   6.819160  -0.904162   4.287650  13.599900  -2.079640   4.399220   1.040490  -0.081653   7.233940   2.072830  -4.618150  -0.371979   0.154345  -1.662020 -74.988500  20.649700  -3.576090  -3.966560  -6.735270 -17.869100  12.758500  -8.771700   5.442730  38.423600  34.609500 -73.812700 -29.412100   0.005315   0.003003  -9.706060   0.004857  -0.014096 -34.116800  11.049100 -15.795400 -29.171800   0.005226   0.000828 -20.420200   0.004661  -0.010030 -28.572400   2.796810  -5.119650 -39.012000   0.002632   0.002167 -25.982000   0.004146   0.003279 -28.481300   2.788640  -5.124060 -37.491400   0.003954   0.004182 -24.969200   0.003440   0.004779 -31.741100   0.930865  -1.504230 -47.630200  -0.007211   0.003266 -31.721700   0.003088   0.006675   7.129420  -0.970734   4.338150  50.424000   8.620010  23.478000 -38.967100 -14.677800  65.295000  20.891400  34.018300 -12.434600 -59.040400  54.333300 108.293000 -15.695000  -0.002345  -0.011978 -12.847500   0.008996  -0.003714  25.583800   9.769070  19.513300  22.310000  -0.004943  -0.006015  15.617000  -0.004157  -0.002259  24.647900   5.616830  12.040700  25.240900  -0.002497  -0.008478  16.810400  -0.010547  -0.003111  22.311400   1.902880   4.625720  22.388200   0.000770  -0.005253  14.910600  -0.002679   0.002131  42.231300  -1.754060  -1.931380  63.391300   0.005185   0.003573  42.218600   0.002501  -0.004098   3.246330  16.004400   3.217320   1.508820   0.116922  11.372600  -2.974340  -5.046130   2.224330  -0.000000   0.000000  -0.000000   3.404140  13.217500  -7.165310   0.460083   0.448634  -5.883350  -1.379760  -2.950140   2.353710  -0.000000   0.000000   0.000000
 -0.032734  89.452900  -1.787090  -4.563800 -11.001300  -8.090610   2.062380   6.786350  -0.897154   4.277730  13.534600  -2.063830   4.384320   1.062520  -0.081378   7.210040   2.117310  -4.544530  -0.398045   0.151206  -1.690400 -74.992000  20.717800  -3.577510  -3.978500  -6.663000 -17.739300  12.685200  -8.188020   5.311270  38.432700  34.543100 -73.757800 -29.307100   0.005313   0.003004  -9.653590   0.004856  -0.022640 -34.022000  11.039200 -15.836400 -29.096200   0.005225   0.000864 -20.367300   0.004662  -0.006338 -28.558700   2.848370  -5.216610 -38.825300   0.002655   0.002167 -25.857700   0.004093   0.003279 -28.460300   2.839420  -5.221450 -37.255900   0.003953   0.004184 -24.812300   0.003443   0.004774 -31.606000   0.956756  -1.554260 -47.428600  -0.006564   0.003265 -31.587500   0.003088   0.006671   7.140920  -0.998173   4.318990  50.448600   8.401730  23.537000 -38.869400 -14.130200  64.992400  20.733300  33.749500 -12.364700 -59.040400  54.333300 108.293000 -15.695000  -0.002309  -0.012121 -12.847500   0.009108  -0.003725  25.841200   9.820120  19.400500  22.519700  -0.004949  -0.005978  15.763800  -0.004167  -0.002268  24.818400   5.632990  11.983300  25.410100  -0.002500  -0.008535  16.923100  -0.010575  -0.003131  22.409100   1.906890   4.612850  22.485900   0.000744  -0.005230  14.975600  -0.002715   0.002174  42.292100  -1.773350  -1.948410  63.483400   0.005203   0.003561  42.279900   0.002523  -0.004099   3.247190  15.971100   3.198660   1.520250   0.144449  11.363500  -2.980400  -5.054200   2.207630  -0.000000   0.000000  -0.000000   3.397190  13.221600  -7.196170   0.486004   0.445883  -5.938650  -1.378740  -2.959710   2.393450  -0.000000   0.000000   0.000000
 -0.032858  89.452900  -1.777080  -4.554890 -10.990400  -8.044660   2.054930   6.748640  -0.879980   4.259450  13.460100  -2.026270   4.377690   1.079050  -0.081124   7.199000   2.150290  -4.503790  -0.420345   0.150756  -1.714880 -74.994100  20.738700  -3.576670  -3.993530  -6.513310 -17.683800  12.623100  -7.672370   5.177090  38.406500  34.375300 -73.591700 -29.252300   0.005312   0.003004  -9.626190   0.004854  -0.031183 -33.957000  11.033200 -15.864500 -29.044600   0.005225   0.000897 -20.331200   0.004663  -0.005179 -28.551800   2.875550  -5.267700 -38.734400   0.002679   0.002167 -25.797200   0.004040   0.003278 -28.450200   2.866240  -5.272750 -37.148900   0.003952   0.004184 -24.741100   0.003445   0.004770 -31.534600   0.970360  -1.580780 -47.322100  -0.005891   0.003265 -31.516500   0.003088   0.006669   7.146320  -1.012550   4.286960  50.463200   8.133440  23.546000 -38.728500 -13.520200  64.679900  20.495100  33.443800 -12.290300 -59.040400  54.333300 108.293000 -15.695000  -0.002273  -0.012262 -12.847500   0.009222  -0.003736  26.136200   9.878190  19.271300  22.759900  -0.004956  -0.005939  15.931900  -0.004174  -0.002279  24.991800   5.649350  11.924900  25.582300  -0.002504  -0.008595  17.037800  -0.010604  -0.003152  22.507000   1.914810   4.610090  22.584000   0.000718  -0.005204  15.040900  -0.002754   0.002213  42.364200  -1.796280  -1.968560  63.592700   0.005218   0.003547  42.352700   0.002547  -0.004101   3.243420  15.946100   3.173430   1.531860   0.170990  11.357800  -2.983550  -5.062250   2.197710  -0.000000   0.000000   0.000000   3.384730  13.224200  -7.232430   0.512164   0.443127  -6.000650  -1.375330  -2.972440   2.457450   0.000000   0.000000  -0.000000
